<svg xmlns="http://www.w3.org/2000/svg" xmlns:xlink="http://www.w3.org/1999/xlink" width="82" height="82" viewBox="0 0 82 82"><defs><style>.a{fill:url(#a);}.b{fill:#fff;}</style><linearGradient id="a" x1="0.5" x2="0.5" y2="1" gradientUnits="objectBoundingBox"><stop offset="0" stop-color="#7684f0"/><stop offset="1" stop-color="#58c5ed"/></linearGradient></defs><g transform="translate(-782 -2773)"><circle class="a" cx="41" cy="41" r="41" transform="translate(782 2773)"/><g transform="translate(-21.708 281.571)"><path class="b" d="M.422,11.963,1.78,10.605a1.44,1.44,0,0,1,2.037,0l.339.339,6.789-6.789-.339-.339a1.44,1.44,0,0,1,0-2.037L11.963.422A1.44,1.44,0,0,1,14,.422L21.468,7.89a1.44,1.44,0,0,1,0,2.037L20.11,11.284a1.44,1.44,0,0,1-2.037,0l-.339-.339-2.376,2.376,4.863,4.863.339-.339a1.92,1.92,0,0,1,2.716,0l6.885,6.886a1.92,1.92,0,0,1,0,2.716l-2.716,2.716a1.92,1.92,0,0,1-2.716,0l-6.886-6.885a1.92,1.92,0,0,1,0-2.716l.339-.339-4.863-4.863-2.376,2.376.339.339a1.44,1.44,0,0,1,0,2.037L9.926,21.468a1.44,1.44,0,0,1-2.037,0L.422,14a1.44,1.44,0,0,1,0-2.037Z" transform="translate(834.333 2516.724)"/><rect class="b" width="20.448" height="4.337" rx="2" transform="translate(824.777 2544.749)"/></g></g></svg>