<svg xmlns="http://www.w3.org/2000/svg" xmlns:xlink="http://www.w3.org/1999/xlink" width="82" height="82" viewBox="0 0 82 82"><defs><style>.a{fill:url(#a);}.b{fill:#fff;}</style><linearGradient id="a" x1="0.5" x2="0.5" y2="1" gradientUnits="objectBoundingBox"><stop offset="0" stop-color="#9cf076"/><stop offset="1" stop-color="#5aba79"/></linearGradient></defs><g transform="translate(-1041 -2773)"><circle class="a" cx="41" cy="41" r="41" transform="translate(1041 2773)"/><path class="b" d="M34.883,4.6H22.975V6.8h3.51v3.486h-3.51V11.4h3.51V14.89h-3.51v1.142h3.51v3.3h-3.51v1.323h3.51v3.309h-3.51v1.323h3.51v3.328h-3.51v2.427H34.883c.188-.056.345-.278.471-.664a3.248,3.248,0,0,0,.191-.942V5c0-.19-.065-.3-.191-.344A1.629,1.629,0,0,0,34.883,4.6ZM33.338,28.612H27.626V25.287h5.712v3.325Zm0-4.648H27.626v-3.31h5.712Zm0-4.633H27.626V16.045h5.712v3.286Zm0-4.443H27.626V11.4h5.712V14.89h0Zm0-4.619H27.626V6.8h5.712v3.466ZM0,4.049V31.6l20.972,3.627V.329L0,4.061Zm12.43,20.84q-.12-.324-1.123-2.759c-.665-1.623-1.066-2.568-1.183-2.838h-.037l-2.25,5.354-3.007-.2L8.4,17.778,5.132,11.113,8.2,10.952l2.026,5.215h.04l2.288-5.452,3.168-.2-3.772,7.213,3.888,7.358-3.4-.2Z" transform="translate(1064 2796.671)"/></g></svg>