<svg xmlns="http://www.w3.org/2000/svg" width="25.52" height="19.144" viewBox="0 0 25.52 19.144"><defs><style>.a{fill:#fff;}</style></defs><path class="a" d="M25.354,8.727a3.875,3.875,0,0,0-3.689-4.048C18.9,4.55,16.087,4.5,13.21,4.5h-.9c-2.871,0-5.693.05-8.455.179A3.884,3.884,0,0,0,.174,8.737C.05,10.512-.005,12.287,0,14.061s.05,3.549.169,5.329a3.888,3.888,0,0,0,3.684,4.063c2.9.135,5.877.194,8.9.189s6-.05,8.9-.189a3.889,3.889,0,0,0,3.689-4.063c.12-1.78.174-3.554.169-5.334S25.473,10.507,25.354,8.727ZM10.319,18.952v-9.8l7.228,4.9Z" transform="translate(0 -4.5)"/></svg>