<svg xmlns="http://www.w3.org/2000/svg" width="19.143" height="19.144" viewBox="0 0 19.143 19.144"><defs><style>.a{fill:#fff;}</style></defs><path class="a" d="M17.776,2.25H1.363A1.373,1.373,0,0,0,0,3.63V20.013a1.373,1.373,0,0,0,1.363,1.38H17.776a1.377,1.377,0,0,0,1.367-1.38V3.63A1.377,1.377,0,0,0,17.776,2.25ZM5.786,18.659H2.948V9.523H5.79v9.136ZM4.367,8.275A1.645,1.645,0,1,1,6.012,6.63,1.646,1.646,0,0,1,4.367,8.275ZM16.422,18.659H13.584V14.215c0-1.06-.021-2.423-1.474-2.423-1.478,0-1.7,1.154-1.7,2.346v4.521H7.568V9.523H10.29v1.248h.038A2.988,2.988,0,0,1,13.016,9.3c2.872,0,3.406,1.893,3.406,4.354Z" transform="translate(0 -2.25)"/></svg>