<svg xmlns="http://www.w3.org/2000/svg" width="22.373" height="26.624" viewBox="0 0 22.373 26.624"><path d="M18.987,16.319a5.549,5.549,0,0,1,2.972-5.04,6.386,6.386,0,0,0-5.034-2.651c-2.11-.166-4.416,1.23-5.26,1.23-.892,0-2.936-1.171-4.541-1.171C3.806,8.741.281,11.332.281,16.6a14.815,14.815,0,0,0,.856,4.826c.761,2.181,3.507,7.531,6.372,7.442,1.5-.036,2.556-1.064,4.505-1.064,1.89,0,2.871,1.064,4.541,1.064,2.889-.042,5.373-4.9,6.1-7.091a5.892,5.892,0,0,1-3.667-5.462Zm-3.364-9.76A5.6,5.6,0,0,0,17.049,2.25a6.3,6.3,0,0,0-4.036,2.074A5.686,5.686,0,0,0,11.491,8.6,4.992,4.992,0,0,0,15.622,6.559Z" transform="translate(-0.281 -2.25)"/></svg>