<svg xmlns="http://www.w3.org/2000/svg" xmlns:xlink="http://www.w3.org/1999/xlink" width="82" height="82" viewBox="0 0 82 82"><defs><style>.a{fill:url(#a);}.b{fill:#fff;}</style><linearGradient id="a" x1="0.5" x2="0.5" y2="1" gradientUnits="objectBoundingBox"><stop offset="0" stop-color="#01b569"/><stop offset="1" stop-color="#60ace9"/></linearGradient></defs><g transform="translate(-225 -2773)"><circle class="a" cx="41" cy="41" r="41" transform="translate(225 2773)"/><path class="b" d="M38.743,26.092h-.993a5.236,5.236,0,0,1-3.482-1.111,2.942,2.942,0,0,0-1.973-.875H31.282a2.942,2.942,0,0,0-1.973.875,5.23,5.23,0,0,1-3.481,1.111,5.236,5.236,0,0,1-3.482-1.111,2.942,2.942,0,0,0-1.973-.875H19.361a2.942,2.942,0,0,0-1.973.875,5.23,5.23,0,0,1-3.481,1.111,5.236,5.236,0,0,1-3.482-1.111A2.942,2.942,0,0,0,8.453,24.1H7.441a2.942,2.942,0,0,0-1.973.875,5.23,5.23,0,0,1-3.481,1.111H.993A.993.993,0,0,0,0,27.085v1.987a.993.993,0,0,0,.993.993h.993a9.257,9.257,0,0,0,5.96-1.977,9.254,9.254,0,0,0,5.96,1.977,9.257,9.257,0,0,0,5.96-1.977,9.254,9.254,0,0,0,5.96,1.977,9.257,9.257,0,0,0,5.96-1.977,9.254,9.254,0,0,0,5.96,1.977h.993a.993.993,0,0,0,.993-.993V27.085A.993.993,0,0,0,38.743,26.092ZM13.908,24.1v-5.96H25.828V24.1a3.4,3.4,0,0,0,2.135-.585A5.367,5.367,0,0,1,29.8,22.4V8.21a1.987,1.987,0,0,1,3.974,0V9.2a.993.993,0,0,0,.993.993h1.987a.993.993,0,0,0,.993-.993V8.21a5.96,5.96,0,0,0-11.921,0v5.96H13.908V8.21a1.987,1.987,0,0,1,3.974,0V9.2a.993.993,0,0,0,.993.993h1.987a.993.993,0,0,0,.993-.993V8.21a5.96,5.96,0,0,0-11.921,0V22.4a5.377,5.377,0,0,1,1.838,1.122A3.4,3.4,0,0,0,13.908,24.1Z" transform="translate(243 2797.75)"/></g></svg>