<svg xmlns="http://www.w3.org/2000/svg" xmlns:xlink="http://www.w3.org/1999/xlink" width="82" height="82" viewBox="0 0 82 82"><defs><style>.a{fill:url(#a);}.b{fill:#fff;}</style><linearGradient id="a" x1="0.5" x2="0.5" y2="1" gradientUnits="objectBoundingBox"><stop offset="0" stop-color="#f7ae39"/><stop offset="1" stop-color="#f20505"/></linearGradient></defs><g transform="translate(-493 -2773)"><circle class="a" cx="41" cy="41" r="41" transform="translate(493 2773)"/><path class="b" d="M1.016,14.2h1.87A10.173,10.173,0,0,1,5.256,10.87l-1.2-4.785H6.086a6.046,6.046,0,0,1,4.627,2.174,10.052,10.052,0,0,1,1.458-.146h8.113a10.151,10.151,0,0,1,9.938,8.113h2.738A1.523,1.523,0,0,0,34.45,14.4,1.561,1.561,0,0,0,32.9,13.184h-.063a.381.381,0,0,1-.38-.38V11.536a.381.381,0,0,1,.38-.38,3.631,3.631,0,0,1,3.645,3.08,3.552,3.552,0,0,1-3.518,4.019H30.425a10.1,10.1,0,0,1-4.057,8.069v5.115a1.017,1.017,0,0,1-1.014,1.014H21.3a1.017,1.017,0,0,1-1.014-1.014V28.4H12.171v3.042a1.017,1.017,0,0,1-1.014,1.014H7.1a1.017,1.017,0,0,1-1.014-1.014V26.323A10.143,10.143,0,0,1,4.1,24.339H1.016A1.017,1.017,0,0,1,0,23.325V15.212A1.017,1.017,0,0,1,1.016,14.2Zm8.113,4.057A1.014,1.014,0,1,0,8.115,17.24,1.017,1.017,0,0,0,9.129,18.254ZM20.284,6.085H12.171c-.342,0-.678.025-1.008.051,0-.019-.006-.032-.006-.051a6.085,6.085,0,1,1,12.17,0c0,.133-.032.26-.038.393A12.048,12.048,0,0,0,20.284,6.085Z" transform="translate(515.998 2798)"/></g></svg>